<svg width="90" height="16" viewBox="0 0 90 16" fill="none" xmlns="http://www.w3.org/2000/svg">
<path d="M5.72 15.2C4.97333 15.2 4.30667 15.1067 3.72 14.92C3.13333 14.72 2.63333 14.46 2.22 14.14C1.82 13.82 1.50667 13.46 1.28 13.06C1.06667 12.6467 0.953333 12.22 0.94 11.78C0.94 11.66 0.98 11.5667 1.06 11.5C1.14 11.4333 1.24 11.4 1.36 11.4H1.64C1.74667 11.4 1.84667 11.4267 1.94 11.48C2.04667 11.5333 2.12667 11.66 2.18 11.86C2.32667 12.4333 2.58667 12.88 2.96 13.2C3.34667 13.5067 3.78 13.72 4.26 13.84C4.75333 13.9467 5.24 14 5.72 14C6.74667 14 7.58667 13.7533 8.24 13.26C8.90667 12.7667 9.24 12.0267 9.24 11.04C9.24 10.0533 8.94 9.34667 8.34 8.92C7.75333 8.49333 6.94667 8.28 5.92 8.28H4.16C4.02667 8.28 3.92 8.24 3.84 8.16C3.76 8.08 3.72 7.97333 3.72 7.84V7.54C3.72 7.43333 3.73333 7.34667 3.76 7.28C3.8 7.2 3.84667 7.12667 3.9 7.06L8.02 2.2H1.98C1.84667 2.2 1.74 2.16 1.66 2.08C1.58 2 1.54 1.89333 1.54 1.76V1.46C1.54 1.31333 1.58 1.2 1.66 1.12C1.74 1.04 1.84667 0.999999 1.98 0.999999H9.44C9.58667 0.999999 9.7 1.04 9.78 1.12C9.86 1.2 9.9 1.31333 9.9 1.46V1.76C9.9 1.84 9.88 1.91333 9.84 1.98C9.81333 2.03333 9.78 2.08667 9.74 2.14L5.52 7.08H5.92C6.84 7.08 7.64 7.22667 8.32 7.52C9.01333 7.8 9.54667 8.23333 9.92 8.82C10.3067 9.40667 10.5 10.1467 10.5 11.04C10.5 11.92 10.2933 12.6733 9.88 13.3C9.46667 13.9133 8.9 14.3867 8.18 14.72C7.46 15.04 6.64 15.2 5.72 15.2ZM13.8434 15C13.7101 15 13.6034 14.96 13.5234 14.88C13.4434 14.8 13.4034 14.6933 13.4034 14.56V1.46C13.4034 1.31333 13.4434 1.2 13.5234 1.12C13.6034 1.04 13.7101 0.999999 13.8434 0.999999H18.1034C19.5168 0.999999 20.6234 1.20667 21.4234 1.62C22.2234 2.03333 22.7901 2.64667 23.1234 3.46C23.4701 4.26 23.6501 5.24 23.6634 6.4C23.6768 7 23.6834 7.53333 23.6834 8C23.6834 8.45333 23.6768 8.98 23.6634 9.58C23.6368 10.8067 23.4568 11.82 23.1234 12.62C22.7901 13.42 22.2301 14.02 21.4434 14.42C20.6568 14.8067 19.5768 15 18.2034 15H13.8434ZM14.6634 13.8H18.1034C19.1701 13.8 20.0101 13.66 20.6234 13.38C21.2501 13.0867 21.6968 12.6267 21.9634 12C22.2434 11.36 22.3901 10.52 22.4034 9.48C22.4168 9.08 22.4234 8.73333 22.4234 8.44C22.4234 8.13333 22.4234 7.83333 22.4234 7.54C22.4234 7.24667 22.4168 6.9 22.4034 6.5C22.3768 5.03333 22.0368 3.95333 21.3834 3.26C20.7301 2.55333 19.6034 2.2 18.0034 2.2H14.6634V13.8ZM31.6786 15.2C30.3453 15.2 29.2386 15.0133 28.3586 14.64C27.4786 14.2533 26.8119 13.7533 26.3586 13.14C25.9053 12.5267 25.6653 11.8733 25.6386 11.18C25.6386 11.0733 25.6786 10.98 25.7586 10.9C25.8519 10.8067 25.9586 10.76 26.0786 10.76H28.5986C28.7853 10.76 28.9253 10.7933 29.0186 10.86C29.1253 10.9267 29.2186 11.0133 29.2986 11.12C29.4053 11.32 29.5519 11.5133 29.7386 11.7C29.9386 11.8867 30.1919 12.04 30.4986 12.16C30.8186 12.2667 31.2119 12.32 31.6786 12.32C32.4519 12.32 33.0319 12.2 33.4186 11.96C33.8186 11.72 34.0186 11.3933 34.0186 10.98C34.0186 10.6867 33.9119 10.4467 33.6986 10.26C33.4853 10.06 33.1386 9.88667 32.6586 9.74C32.1919 9.58 31.5653 9.42 30.7786 9.26C29.7653 9.04667 28.8986 8.77333 28.1786 8.44C27.4719 8.09333 26.9319 7.64667 26.5586 7.1C26.1853 6.54 25.9986 5.84667 25.9986 5.02C25.9986 4.20667 26.2253 3.48 26.6786 2.84C27.1453 2.2 27.7919 1.7 28.6186 1.34C29.4453 0.979999 30.4253 0.799999 31.5586 0.799999C32.4786 0.799999 33.2853 0.919999 33.9786 1.16C34.6853 1.4 35.2786 1.72 35.7586 2.12C36.2386 2.52 36.5986 2.94667 36.8386 3.4C37.0919 3.84 37.2253 4.27333 37.2386 4.7C37.2386 4.80667 37.1986 4.90667 37.1186 5C37.0386 5.08 36.9386 5.12 36.8186 5.12H34.1786C34.0319 5.12 33.9053 5.09333 33.7986 5.04C33.6919 4.98667 33.5986 4.9 33.5186 4.78C33.4386 4.48667 33.2253 4.23333 32.8786 4.02C32.5453 3.79333 32.1053 3.68 31.5586 3.68C30.9719 3.68 30.5119 3.78667 30.1786 4C29.8586 4.2 29.6986 4.51333 29.6986 4.94C29.6986 5.20667 29.7853 5.44 29.9586 5.64C30.1453 5.84 30.4453 6.01333 30.8586 6.16C31.2853 6.30667 31.8653 6.46 32.5986 6.62C33.8119 6.84667 34.7919 7.13333 35.5386 7.48C36.2853 7.81333 36.8319 8.25333 37.1786 8.8C37.5253 9.33333 37.6986 10.0067 37.6986 10.82C37.6986 11.7267 37.4386 12.5133 36.9186 13.18C36.4119 13.8333 35.7053 14.3333 34.7986 14.68C33.8919 15.0267 32.8519 15.2 31.6786 15.2ZM44.8008 15C43.9474 15 43.2074 14.8667 42.5808 14.6C41.9674 14.32 41.4941 13.8933 41.1608 13.32C40.8274 12.7333 40.6608 11.98 40.6608 11.06V7.22H39.1008C38.9541 7.22 38.8274 7.17333 38.7208 7.08C38.6274 6.98667 38.5808 6.86667 38.5808 6.72V5.1C38.5808 4.95333 38.6274 4.83333 38.7208 4.74C38.8274 4.64667 38.9541 4.6 39.1008 4.6H40.6608V1.3C40.6608 1.15333 40.7074 1.03333 40.8008 0.94C40.9074 0.846666 41.0274 0.799999 41.1608 0.799999H43.4808C43.6274 0.799999 43.7474 0.846666 43.8408 0.94C43.9341 1.03333 43.9808 1.15333 43.9808 1.3V4.6H46.4808C46.6274 4.6 46.7474 4.64667 46.8408 4.74C46.9341 4.83333 46.9808 4.95333 46.9808 5.1V6.72C46.9808 6.86667 46.9341 6.98667 46.8408 7.08C46.7474 7.17333 46.6274 7.22 46.4808 7.22H43.9808V10.78C43.9808 11.2333 44.0674 11.5933 44.2408 11.86C44.4141 12.1267 44.7074 12.26 45.1208 12.26H46.6608C46.8074 12.26 46.9274 12.3067 47.0208 12.4C47.1141 12.4933 47.1608 12.6133 47.1608 12.76V14.5C47.1608 14.6467 47.1141 14.7667 47.0208 14.86C46.9274 14.9533 46.8074 15 46.6608 15H44.8008ZM49.3167 15C49.1701 15 49.0501 14.9533 48.9567 14.86C48.8634 14.7667 48.8167 14.6467 48.8167 14.5V5.1C48.8167 4.96667 48.8634 4.85333 48.9567 4.76C49.0501 4.65333 49.1701 4.6 49.3167 4.6H51.6167C51.7634 4.6 51.8834 4.65333 51.9767 4.76C52.0701 4.85333 52.1167 4.96667 52.1167 5.1V5.9C52.4767 5.48667 52.9034 5.16667 53.3967 4.94C53.9034 4.71333 54.4701 4.6 55.0967 4.6H55.9767C56.1101 4.6 56.2234 4.64667 56.3167 4.74C56.4234 4.83333 56.4767 4.95333 56.4767 5.1V7.16C56.4767 7.29333 56.4234 7.41333 56.3167 7.52C56.2234 7.61333 56.1101 7.66 55.9767 7.66H54.0367C53.4901 7.66 53.0634 7.81333 52.7567 8.12C52.4634 8.41333 52.3167 8.83333 52.3167 9.38V14.5C52.3167 14.6467 52.2634 14.7667 52.1567 14.86C52.0634 14.9533 51.9434 15 51.7967 15H49.3167ZM62.6206 15.2C61.0473 15.2 59.794 14.7733 58.8606 13.92C57.9273 13.0667 57.4406 11.8 57.4006 10.12C57.4006 10.0267 57.4006 9.90667 57.4006 9.76C57.4006 9.61333 57.4006 9.5 57.4006 9.42C57.4406 8.36667 57.674 7.46667 58.1006 6.72C58.5406 5.96 59.1406 5.38667 59.9006 5C60.674 4.6 61.574 4.4 62.6006 4.4C63.774 4.4 64.7406 4.63333 65.5006 5.1C66.274 5.56667 66.854 6.2 67.2406 7C67.6273 7.8 67.8206 8.71333 67.8206 9.74V10.22C67.8206 10.3667 67.7673 10.4867 67.6606 10.58C67.5673 10.6733 67.454 10.72 67.3206 10.72H60.9206C60.9206 10.7333 60.9206 10.7533 60.9206 10.78C60.9206 10.8067 60.9206 10.8333 60.9206 10.86C60.934 11.2467 61.0006 11.6 61.1206 11.92C61.2406 12.24 61.4273 12.4933 61.6806 12.68C61.934 12.8667 62.2406 12.96 62.6006 12.96C62.8673 12.96 63.0873 12.92 63.2606 12.84C63.4473 12.7467 63.6006 12.6467 63.7206 12.54C63.8406 12.42 63.934 12.32 64.0006 12.24C64.1206 12.1067 64.214 12.0267 64.2806 12C64.3606 11.96 64.4806 11.94 64.6406 11.94H67.1206C67.254 11.94 67.3606 11.98 67.4406 12.06C67.534 12.1267 67.574 12.2267 67.5606 12.36C67.5473 12.5867 67.434 12.86 67.2206 13.18C67.0073 13.5 66.694 13.82 66.2806 14.14C65.8806 14.4467 65.374 14.7 64.7606 14.9C64.1473 15.1 63.434 15.2 62.6206 15.2ZM60.9206 8.74H64.3006V8.7C64.3006 8.27333 64.234 7.9 64.1006 7.58C63.9806 7.26 63.7873 7.01333 63.5206 6.84C63.2673 6.66667 62.9606 6.58 62.6006 6.58C62.2406 6.58 61.934 6.66667 61.6806 6.84C61.4406 7.01333 61.254 7.26 61.1206 7.58C60.9873 7.9 60.9206 8.27333 60.9206 8.7V8.74ZM74.4956 15.2C72.9223 15.2 71.669 14.7733 70.7356 13.92C69.8023 13.0667 69.3156 11.8 69.2756 10.12C69.2756 10.0267 69.2756 9.90667 69.2756 9.76C69.2756 9.61333 69.2756 9.5 69.2756 9.42C69.3156 8.36667 69.549 7.46667 69.9756 6.72C70.4156 5.96 71.0156 5.38667 71.7756 5C72.549 4.6 73.449 4.4 74.4756 4.4C75.649 4.4 76.6156 4.63333 77.3756 5.1C78.149 5.56667 78.729 6.2 79.1156 7C79.5023 7.8 79.6956 8.71333 79.6956 9.74V10.22C79.6956 10.3667 79.6423 10.4867 79.5356 10.58C79.4423 10.6733 79.329 10.72 79.1956 10.72H72.7956C72.7956 10.7333 72.7956 10.7533 72.7956 10.78C72.7956 10.8067 72.7956 10.8333 72.7956 10.86C72.809 11.2467 72.8756 11.6 72.9956 11.92C73.1156 12.24 73.3023 12.4933 73.5556 12.68C73.809 12.8667 74.1156 12.96 74.4756 12.96C74.7423 12.96 74.9623 12.92 75.1356 12.84C75.3223 12.7467 75.4756 12.6467 75.5956 12.54C75.7156 12.42 75.809 12.32 75.8756 12.24C75.9956 12.1067 76.089 12.0267 76.1556 12C76.2356 11.96 76.3556 11.94 76.5156 11.94H78.9956C79.129 11.94 79.2356 11.98 79.3156 12.06C79.409 12.1267 79.449 12.2267 79.4356 12.36C79.4223 12.5867 79.309 12.86 79.0956 13.18C78.8823 13.5 78.569 13.82 78.1556 14.14C77.7556 14.4467 77.249 14.7 76.6356 14.9C76.0223 15.1 75.309 15.2 74.4956 15.2ZM72.7956 8.74H76.1756V8.7C76.1756 8.27333 76.109 7.9 75.9756 7.58C75.8556 7.26 75.6623 7.01333 75.3956 6.84C75.1423 6.66667 74.8356 6.58 74.4756 6.58C74.1156 6.58 73.809 6.66667 73.5556 6.84C73.3156 7.01333 73.129 7.26 72.9956 7.58C72.8623 7.9 72.7956 8.27333 72.7956 8.7V8.74ZM86.8711 15C86.0178 15 85.2778 14.8667 84.6511 14.6C84.0378 14.32 83.5644 13.8933 83.2311 13.32C82.8978 12.7333 82.7311 11.98 82.7311 11.06V7.22H81.1711C81.0244 7.22 80.8978 7.17333 80.7911 7.08C80.6978 6.98667 80.6511 6.86667 80.6511 6.72V5.1C80.6511 4.95333 80.6978 4.83333 80.7911 4.74C80.8978 4.64667 81.0244 4.6 81.1711 4.6H82.7311V1.3C82.7311 1.15333 82.7778 1.03333 82.8711 0.94C82.9778 0.846666 83.0978 0.799999 83.2311 0.799999H85.5511C85.6978 0.799999 85.8178 0.846666 85.9111 0.94C86.0044 1.03333 86.0511 1.15333 86.0511 1.3V4.6H88.5511C88.6978 4.6 88.8178 4.64667 88.9111 4.74C89.0044 4.83333 89.0511 4.95333 89.0511 5.1V6.72C89.0511 6.86667 89.0044 6.98667 88.9111 7.08C88.8178 7.17333 88.6978 7.22 88.5511 7.22H86.0511V10.78C86.0511 11.2333 86.1378 11.5933 86.3111 11.86C86.4844 12.1267 86.7778 12.26 87.1911 12.26H88.7311C88.8778 12.26 88.9978 12.3067 89.0911 12.4C89.1844 12.4933 89.2311 12.6133 89.2311 12.76V14.5C89.2311 14.6467 89.1844 14.7667 89.0911 14.86C88.9978 14.9533 88.8778 15 88.7311 15H86.8711Z" fill="#4B3461"/>
</svg>
